<?xml version="1.0" standalone="no"?>
<!DOCTYPE svg PUBLIC "-//W3C//DTD SVG 20010904//EN"
 "http://www.w3.org/TR/2001/REC-SVG-20010904/DTD/svg10.dtd">
<svg version="1.0" xmlns="http://www.w3.org/2000/svg"
 width="500.000000pt" height="500.000000pt" viewBox="0 0 500.000000 500.000000"
 preserveAspectRatio="xMidYMid meet">

<g transform="translate(0.000000,500.000000) scale(0.100000,-0.100000)"
fill="#000000" stroke="none">
<path d="M2209 4980 c-263 -31 -583 -128 -824 -249 -439 -222 -795 -557 -1036
-976 -201 -350 -320 -732 -338 -1091 -35 -671 160 -1263 580 -1764 244 -292
488 -480 841 -650 382 -183 707 -250 1158 -237 209 6 303 18 487 62 716 171
1336 673 1654 1340 80 167 122 282 174 470 59 214 72 297 80 500 29 736 -242
1408 -776 1919 -221 212 -480 379 -784 506 -179 74 -463 147 -660 170 -102 11
-457 11 -556 0z m499 -221 c711 -76 1311 -440 1690 -1024 262 -404 396 -909
362 -1372 -50 -688 -369 -1277 -917 -1689 -61 -46 -315 -204 -328 -204 -2 0
-32 -13 -67 -30 -554 -260 -1209 -278 -1788 -49 -425 168 -795 467 -1049 847
-225 336 -351 708 -381 1124 -15 203 0 380 51 628 37 184 148 480 225 601 13
21 24 41 24 44 0 3 30 51 67 108 327 499 858 861 1435 978 227 46 475 60 676
38z"/>
<path d="M2456 4186 c-145 -191 -340 -287 -641 -317 -90 -9 -240 -6 -320 6
-29 5 -33 1 -95 -103 -35 -59 -72 -118 -82 -131 -10 -13 -18 -29 -18 -36 0 -7
20 -46 44 -86 55 -90 103 -219 122 -319 27 -152 10 -418 -36 -557 -110 -333
-75 -556 112 -727 116 -106 247 -162 543 -232 177 -41 287 -80 353 -125 50
-34 55 -35 73 -13 30 36 174 116 274 152 17 6 77 20 135 32 361 74 551 191
635 393 28 68 30 80 30 202 0 112 -4 143 -27 220 -79 267 -95 508 -46 706 27
108 81 231 135 310 l31 44 -91 136 -90 136 -192 -5 c-170 -4 -204 -2 -301 17
-222 46 -359 132 -514 324 -4 4 -19 -8 -34 -27z m81 -156 c-7 -26 11 -82 30
-93 25 -15 13 -27 -27 -27 -41 0 -49 7 -28 28 9 9 7 12 -9 12 -16 0 -20 -5
-16 -20 5 -17 0 -20 -26 -20 -17 0 -31 5 -31 10 0 6 4 10 9 10 5 0 13 19 19
42 8 32 8 44 -1 50 -18 12 4 23 49 26 33 3 36 1 31 -18z m213 -80 c46 -23 55
-61 20 -82 -22 -14 -27 -44 -7 -51 9 -3 9 -8 1 -16 -21 -23 -44 -1 -44 41 0
25 -4 37 -11 33 -6 -4 -8 -13 -5 -21 8 -21 -12 -27 -45 -14 -32 13 -37 27 -15
36 20 8 50 55 49 77 -2 22 9 22 57 -3z m-432 -22 c7 -7 12 -22 12 -34 0 -25
24 -49 40 -39 5 3 10 0 10 -8 0 -23 -30 -29 -56 -12 -27 18 -34 19 -34 5 0 -5
7 -10 15 -10 25 0 17 -30 -11 -40 -36 -14 -47 -12 -40 6 7 17 -29 84 -45 84
-24 0 -5 23 34 40 51 23 60 23 75 8z m252 -100 c65 -46 184 -106 270 -134 76
-25 100 -28 225 -28 77 -1 158 2 180 6 l40 7 63 -74 62 -75 -25 -50 c-77 -152
-125 -352 -125 -518 0 -119 25 -280 55 -352 75 -180 82 -353 19 -485 -52 -110
-191 -205 -364 -249 -163 -42 -318 -94 -364 -123 -22 -15 -60 -47 -82 -71
l-42 -45 -15 30 c-34 64 -160 128 -354 177 -130 33 -206 61 -271 98 -80 46
-166 130 -198 195 -27 54 -29 65 -29 178 1 108 5 137 44 290 24 93 47 210 51
259 16 198 -21 405 -105 582 l-42 91 66 70 66 70 40 -9 c22 -5 103 -8 180 -5
122 3 151 7 231 34 99 32 225 103 295 163 l44 38 25 -22 c14 -12 41 -34 60
-48z m337 50 c32 -12 46 -38 20 -38 -18 0 -38 -65 -25 -78 19 -19 -1 -31 -32
-20 -38 13 -46 26 -27 41 18 15 40 77 26 77 -5 0 -9 7 -9 15 0 18 4 18 47 3z
m-769 -52 c-5 -6 -13 -5 -20 2 -17 17 -43 15 -58 -3 -18 -21 2 -65 29 -65 24
0 36 16 19 23 -17 7 9 27 35 27 22 0 23 -42 1 -64 -56 -56 -148 -5 -129 72 6
23 67 58 83 48 5 -3 14 -1 22 4 11 7 17 4 21 -13 3 -12 2 -26 -3 -31z m-212
13 c3 -6 2 -14 -4 -18 -13 -8 5 -81 20 -81 4 0 8 -7 8 -15 0 -10 -11 -15 -35
-15 -35 0 -50 22 -22 33 6 3 2 6 -10 6 -16 1 -20 -3 -16 -19 5 -17 0 -20 -26
-20 -21 0 -31 5 -31 15 0 8 4 15 8 15 13 0 31 67 25 90 -5 18 0 20 35 20 23 0
44 -5 48 -11z m1170 -46 c0 -35 4 -58 12 -61 25 -8 10 -22 -24 -22 -31 0 -36
3 -31 19 3 12 -1 22 -9 25 -11 4 -13 -1 -8 -19 6 -23 3 -25 -30 -25 -25 0 -36
4 -36 15 0 8 5 15 11 15 15 0 39 64 32 88 -5 20 -1 22 39 22 l44 0 0 -57z
m-1580 -271 c21 -14 65 -100 54 -107 -5 -3 -14 -4 -19 -1 -13 9 -81 -22 -78
-35 1 -6 -2 -13 -8 -15 -13 -5 -55 69 -55 97 0 47 69 87 106 61z m1914 -65 c0
-17 70 -43 79 -29 4 6 12 7 19 3 10 -6 9 -17 -6 -52 -11 -24 -26 -50 -35 -57
-25 -21 -77 -11 -99 19 -19 26 -19 27 -2 78 17 46 44 70 44 38z m-1826 -102
c8 -31 0 -46 -19 -38 -8 3 -15 0 -15 -5 0 -16 18 -24 25 -12 10 17 21 11 34
-17 10 -21 9 -28 -1 -34 -7 -5 -14 -4 -16 1 -6 15 -59 12 -76 -5 -23 -23 -34
-18 -51 21 -20 48 -19 54 8 52 26 -2 76 30 77 50 0 23 28 12 34 -13z m1764
-77 c6 -6 32 -11 57 -12 l47 -1 -7 -49 c-3 -28 -8 -53 -11 -58 -9 -14 -44 -9
-44 7 0 8 5 15 10 15 6 0 10 9 10 20 0 11 -4 20 -10 20 -5 0 -10 -7 -10 -15 0
-8 -7 -15 -15 -15 -8 0 -15 9 -15 20 0 11 -7 20 -15 20 -17 0 -21 -25 -5 -35
17 -10 0 -33 -22 -27 -17 4 -19 10 -13 50 11 73 19 84 43 60z m-1722 -93 c12
-16 27 -105 20 -113 -3 -2 -11 0 -18 4 -19 12 -71 5 -84 -12 -17 -22 -34 -17
-34 10 0 13 -3 37 -6 54 -5 25 -1 36 21 57 21 22 32 26 58 21 18 -3 37 -13 43
-21z m1680 -110 c7 -17 84 -22 84 -5 0 6 7 10 16 10 12 0 15 -6 10 -22 -3 -13
-6 -31 -6 -40 0 -18 -25 -25 -32 -10 -1 5 -20 12 -40 15 -33 5 -38 3 -38 -14
0 -12 7 -19 20 -19 11 0 20 -7 20 -15 0 -10 -11 -15 -35 -15 l-35 0 0 58 c0
32 3 62 7 65 11 11 23 8 29 -8z m-1766 -61 c0 -12 6 -15 23 -10 12 3 32 6 45
6 13 0 20 4 17 10 -3 6 1 10 9 10 12 0 16 -11 16 -41 0 -35 -2 -40 -17 -34
-25 11 -86 6 -94 -7 -12 -19 -29 2 -29 36 0 18 3 36 7 39 11 12 23 7 23 -9z
m1760 -93 c0 -13 73 -20 88 -8 17 14 23 6 29 -44 6 -40 5 -42 -17 -36 -23 6
-90 -20 -90 -35 0 -4 -7 -8 -15 -8 -11 0 -15 11 -15 36 0 31 3 36 20 31 13 -3
20 0 20 9 0 10 -7 13 -25 8 -23 -6 -25 -3 -25 25 0 21 5 31 15 31 8 0 15 -4
15 -9z m-1744 -23 c4 -6 -1 -17 -11 -24 -10 -8 -15 -17 -12 -21 4 -4 20 8 35
26 21 26 33 32 49 27 26 -8 34 -28 26 -66 -4 -23 -11 -30 -29 -30 -28 0 -31
17 -7 36 10 7 14 16 10 21 -5 4 -19 -5 -31 -20 -16 -20 -30 -28 -47 -25 -20 2
-24 9 -27 46 -3 36 0 42 17 42 11 0 23 -5 27 -12z m28 -148 c8 0 19 7 24 16
13 23 30 9 25 -20 -4 -17 -13 -26 -34 -30 -27 -5 -42 -26 -19 -26 6 0 10 5 10
10 0 6 7 10 15 10 16 0 20 -35 9 -64 -8 -20 -21 -20 -42 0 -12 12 -27 15 -59
10 -39 -5 -44 -4 -39 12 3 9 8 34 12 55 8 46 30 61 61 41 12 -8 29 -14 37 -14z
m1853 -32 c6 -7 13 -25 17 -39 5 -21 2 -28 -14 -32 -24 -6 -36 9 -20 28 6 7 7
16 2 19 -5 3 -16 -12 -25 -34 -12 -32 -21 -40 -41 -40 -29 0 -31 3 -40 53 -7
35 -5 37 19 37 25 0 34 -14 15 -25 -15 -9 -12 -25 5 -25 8 0 15 7 15 16 0 44
44 71 67 42z m-1933 -116 c3 -5 -4 -16 -15 -25 -23 -20 -25 -37 -4 -37 8 0 15
7 15 15 0 8 7 15 16 15 11 0 15 -6 11 -20 -4 -15 0 -20 14 -20 20 0 26 24 9
35 -17 10 0 33 22 27 17 -4 19 -10 13 -50 -4 -24 -9 -51 -12 -58 -6 -17 -30
-18 -35 -1 -3 7 -23 12 -52 12 l-48 0 6 44 c3 24 6 50 6 57 0 15 45 20 54 6z
m1992 -47 c19 -61 19 -59 -15 -70 -23 -7 -23 -6 -17 30 6 28 4 36 -6 33 -7 -3
-12 -12 -10 -22 2 -9 -4 -16 -13 -16 -8 0 -15 5 -15 10 0 6 -7 10 -15 10 -8 0
-15 -9 -15 -20 0 -14 5 -18 16 -13 12 4 15 1 12 -13 -2 -11 -12 -19 -22 -19
-14 0 -24 14 -37 52 -17 50 -12 73 11 58 13 -8 80 14 80 26 0 5 6 9 14 9 8 0
21 -23 32 -55z m-2049 -119 c4 -8 29 -24 56 -35 69 -30 65 -53 -12 -69 -33 -7
-61 -18 -63 -24 -7 -21 -28 3 -23 25 8 35 13 70 14 95 1 25 16 29 28 8z m2083
-50 c0 -19 -4 -38 -10 -41 -5 -3 -10 -1 -10 4 0 6 -20 11 -45 11 -33 0 -45 -4
-45 -15 0 -8 9 -15 20 -15 13 0 20 -7 20 -20 0 -16 -7 -20 -35 -20 l-35 0 0
59 0 60 55 -6 c38 -4 55 -2 55 6 0 6 7 11 15 11 10 0 15 -10 15 -34z m-1980
-145 c0 -5 3 -22 6 -38 l6 -29 -53 0 c-33 1 -54 -3 -56 -11 -9 -24 -31 -13
-37 19 -6 31 11 58 24 38 9 -14 80 0 80 16 0 8 7 14 15 14 8 0 15 -4 15 -9z
m1973 -11 c5 -16 -38 -130 -50 -130 -7 0 -13 6 -13 13 0 7 -21 28 -46 45 -25
18 -44 38 -41 45 2 7 28 13 65 15 34 2 62 8 62 13 0 10 20 9 23 -1z m-167
-132 c4 -28 36 -68 55 -68 25 0 24 -7 -8 -48 -23 -31 -28 -33 -38 -19 -12 17
-58 38 -88 41 -22 1 -23 6 -6 34 16 25 39 30 39 7 0 -19 16 -20 23 -1 3 8 -2
16 -14 19 -20 5 -20 7 -3 32 18 27 36 29 40 3z m-1762 3 c3 -5 -1 -28 -9 -51
-19 -54 -13 -61 16 -21 21 29 24 30 41 14 22 -20 23 -43 2 -43 -21 0 -76 -39
-69 -50 12 -20 -19 -21 -38 -2 -19 20 -20 23 -5 61 15 38 15 39 -2 28 -10 -6
-16 -15 -14 -19 3 -4 2 -13 -1 -19 -5 -7 -16 -2 -31 12 -29 27 -31 41 -6 37
10 -2 35 12 56 30 38 33 51 38 60 23z m170 -157 c20 -19 20 -27 0 -67 -10 -17
-18 -41 -18 -52 -2 -24 -15 -22 -73 12 -41 24 -58 53 -30 53 6 0 22 16 35 35
25 39 59 46 86 19z"/>
<path d="M2726 3915 c-3 -9 0 -15 9 -15 16 0 20 16 6 24 -5 3 -11 -1 -15 -9z"/>
<path d="M2265 3890 c3 -5 10 -10 16 -10 5 0 9 5 9 10 0 6 -7 10 -16 10 -8 0
-12 -4 -9 -10z"/>
<path d="M2436 3514 c-9 -24 -7 -31 9 -31 8 0 15 8 15 18 0 24 -16 33 -24 13z"/>
<path d="M2470 3512 c0 -10 7 -19 15 -19 8 0 15 9 15 19 0 10 -7 18 -15 18 -8
0 -15 -8 -15 -18z"/>
<path d="M2510 3507 c0 -16 6 -23 20 -23 13 0 20 7 20 19 0 10 -4 15 -10 12
-5 -3 -10 -1 -10 4 0 6 -4 11 -10 11 -5 0 -10 -10 -10 -23z"/>
<path d="M2348 3508 c-24 -8 -26 -12 -15 -28 11 -19 12 -19 24 3 10 18 12 19
13 5 0 -10 5 -18 10 -18 11 0 12 8 2 31 -6 13 -13 14 -34 7z"/>
<path d="M2394 3504 c3 -9 6 -18 6 -20 0 -2 4 -4 8 -4 4 0 8 9 8 20 0 11 -7
20 -14 20 -9 0 -12 -6 -8 -16z"/>
<path d="M2576 3494 c-8 -22 -8 -24 8 -24 9 0 14 9 13 20 -2 24 -13 26 -21 4z"/>
<path d="M2610 3481 c0 -16 16 -26 48 -30 11 -1 9 23 -2 31 -6 4 -17 1 -25 -5
-12 -10 -14 -9 -8 6 3 9 2 17 -3 17 -6 0 -10 -8 -10 -19z m44 -17 c3 -8 2 -12
-4 -9 -6 3 -10 10 -10 16 0 14 7 11 14 -7z"/>
<path d="M2280 3459 c0 -18 -3 -20 -9 -10 -5 8 -16 11 -27 7 -13 -5 -15 -9 -6
-18 18 -18 14 -32 -4 -17 -14 11 -21 8 -50 -26 -26 -29 -32 -40 -22 -46 20
-13 32 -10 19 4 -14 17 -2 30 15 16 8 -7 14 -7 19 1 9 14 -4 32 -17 24 -7 -4
-8 -2 -4 5 6 9 11 9 22 1 10 -9 23 -5 59 21 25 18 44 33 42 34 -1 0 -10 7 -19
14 -16 12 -18 11 -18 -10z"/>
<path d="M2686 3444 c-9 -24 -7 -31 5 -11 6 9 15 15 20 11 6 -4 6 -10 0 -17
-6 -8 -4 -16 5 -25 8 -7 14 -9 14 -5 0 4 4 2 9 -5 6 -10 11 -9 22 4 9 12 10
15 2 10 -7 -4 -13 -3 -13 3 0 6 -7 7 -17 4 -11 -4 -14 -3 -9 6 8 12 -10 41
-24 41 -4 0 -11 -7 -14 -16z"/>
<path d="M2761 3376 c-8 -10 -9 -16 -1 -21 13 -8 30 3 30 21 0 18 -14 18 -29
0z"/>
<path d="M2787 3346 c-4 -10 0 -14 14 -13 10 1 18 6 16 11 -5 16 -24 18 -30 2z"/>
<path d="M2380 3316 c-40 -27 -77 -73 -85 -107 -3 -13 -7 -54 -9 -91 -3 -62
-1 -68 17 -68 10 0 28 -11 38 -24 25 -32 97 -66 140 -66 43 0 107 30 138 64
14 14 32 26 42 26 16 0 17 8 13 75 -2 42 -9 87 -15 102 -12 31 -81 99 -109
106 -19 5 -20 0 -20 -71 0 -88 -14 -147 -36 -156 -27 -10 -59 105 -49 181 6
47 4 53 -12 53 -10 0 -34 -11 -53 -24z m63 -201 c41 -28 46 -40 20 -41 -10 -1
-53 -4 -95 -7 -43 -4 -78 -4 -78 -1 0 3 12 21 28 40 34 42 71 45 125 9z m199
0 c6 -14 15 -25 20 -25 4 0 8 -4 8 -10 0 -12 -149 -13 -169 -1 -20 13 55 61
97 61 25 0 35 -6 44 -25z"/>
<path d="M2850 2650 c-30 -5 -71 -14 -91 -20 -28 -10 -45 -9 -89 4 -65 19
-169 20 -230 2 -31 -9 -53 -10 -72 -4 -22 8 -36 4 -75 -18 -26 -15 -58 -36
-70 -47 -28 -25 -91 -16 -122 17 -29 30 -58 24 -141 -28 -96 -61 -113 -68
-139 -49 -12 8 -24 13 -26 12 -2 -2 -10 -39 -19 -81 -39 -187 -7 -317 98 -411
52 -47 79 -56 273 -96 198 -40 276 -67 314 -107 l22 -23 35 31 c55 47 106 65
251 88 74 11 141 24 149 29 28 16 -79 41 -203 48 -66 3 -129 9 -140 13 -19 7
-18 9 7 20 22 10 36 11 67 2 82 -25 167 -1 206 58 18 27 25 30 76 30 31 0 91
-9 135 -20 l79 -20 17 22 c41 53 51 103 45 216 -3 59 -14 141 -25 182 -11 41
-22 87 -26 103 -6 25 -10 27 -54 27 -26 1 -74 7 -107 15 -66 16 -66 16 -145 5z
m-333 -209 c10 -16 9 -20 -3 -25 -30 -11 -71 -6 -71 9 0 8 4 12 8 10 3 -3 12
2 19 10 17 20 33 19 47 -4z m83 -2 c7 -11 3 -15 -15 -17 -25 -2 -40 12 -31 27
9 13 37 7 46 -10z m-244 -48 c12 -1 29 -13 38 -26 19 -29 7 -32 -32 -8 -26 17
-26 17 -13 0 11 -14 11 -23 3 -42 -7 -14 -16 -25 -22 -25 -13 0 -13 13 1 27
19 19 2 41 -40 53 -22 6 -131 14 -243 19 l-203 8 245 -2 c135 -2 255 -3 266
-4z m388 0 c8 -13 -27 -40 -62 -47 -39 -8 -40 1 -6 32 25 24 58 31 68 15z
m211 -25 c-16 -8 -55 -16 -85 -19 -61 -6 -54 -2 35 17 77 17 87 17 50 2z
m-466 -40 c10 -12 8 -13 -8 -9 -12 3 -18 9 -15 14 7 12 10 11 23 -5z m311 4
c-20 -13 -33 -13 -25 0 3 6 14 10 23 10 15 0 15 -2 2 -10z m-40 -15 c0 -2 -10
-9 -22 -15 -22 -11 -22 -10 -4 4 21 17 26 19 26 11z m-160 -35 c0 -5 -2 -10
-4 -10 -3 0 -8 5 -11 10 -3 6 -1 10 4 10 6 0 11 -4 11 -10z m-53 -16 c4 -10
16 -14 37 -12 22 2 32 -2 34 -13 4 -24 -16 -69 -31 -69 -23 0 -58 40 -52 60 3
10 1 21 -5 25 -5 3 -10 10 -10 16 0 15 20 10 27 -7z m-470 -74 c3 -8 6 -24 7
-35 1 -11 9 -21 21 -23 11 -2 29 -12 40 -22 11 -9 33 -24 49 -31 59 -28 39
-38 -36 -18 -186 49 -228 91 -132 136 19 9 34 21 35 27 0 6 3 4 6 -4 2 -8 7
-22 10 -30z m258 -80 c-3 -5 -12 -10 -18 -10 -7 0 -6 4 3 10 19 12 23 12 15 0z
m257 -22 c-6 -27 -82 -118 -97 -118 -5 1 -30 24 -55 53 -29 34 -34 44 -15 27
31 -26 39 -35 55 -60 8 -13 14 -11 35 13 14 15 25 39 25 52 0 38 11 55 35 55
19 0 22 -4 17 -22z m-212 -58 c10 -6 2 -7 -25 -3 -49 7 -58 13 -19 13 16 0 36
-5 44 -10z"/>
<path d="M2547 2219 c7 -7 15 -10 18 -7 3 3 -2 9 -12 12 -14 6 -15 5 -6 -5z"/>
<path d="M2000 2165 c-19 -22 -8 -25 13 -3 9 10 13 18 8 18 -5 0 -14 -7 -21
-15z"/>
<path d="M1456 3471 c-9 -10 -14 -25 -11 -33 5 -14 12 -13 45 6 29 15 36 24
28 33 -15 19 -42 16 -62 -6z"/>
<path d="M3412 3382 c2 -22 9 -28 34 -30 21 -2 33 2 37 12 7 17 -1 24 -44 36
-29 9 -30 8 -27 -18z"/>
<path d="M1557 3153 c-4 -3 -7 -15 -7 -25 0 -16 5 -18 38 -12 45 8 46 9 39 29
-6 15 -57 21 -70 8z"/>
<path d="M1536 2722 c-3 -6 -1 -14 5 -17 15 -10 25 3 12 16 -7 7 -13 7 -17 1z"/>
<path d="M1460 2375 c0 -17 18 -19 38 -6 11 7 10 10 -3 15 -26 10 -35 7 -35
-9z"/>
<path d="M3460 2175 c7 -8 23 -15 37 -15 22 0 23 2 9 15 -8 8 -24 15 -37 15
-18 0 -19 -2 -9 -15z"/>
<path d="M1713 1895 c-9 -19 -13 -38 -9 -42 9 -9 56 46 56 65 0 25 -31 11 -47
-23z"/>
<path d="M3814 3575 c-10 -8 -14 -15 -9 -15 7 0 7 -3 0 -8 -20 -14 -73 -99
-104 -164 -74 -160 -111 -380 -91 -542 15 -118 67 -316 84 -316 2 0 -6 38 -19
84 -34 124 -50 313 -35 428 13 104 64 269 110 355 17 31 28 63 25 71 -2 7 -1
10 4 7 9 -5 71 74 71 90 0 4 -7 4 -16 1 -14 -5 -15 -4 -4 9 16 19 9 19 -16 0z"/>
<path d="M3696 2507 c3 -10 9 -15 12 -12 3 3 0 11 -7 18 -10 9 -11 8 -5 -6z"/>
<path d="M3710 2474 c0 -3 7 -32 15 -64 25 -97 48 -263 35 -255 -4 3 -10 -12
-13 -33 -3 -20 -8 -45 -12 -55 -6 -14 -4 -16 11 -10 16 6 17 5 4 -9 -8 -9 -17
-15 -18 -13 -2 2 -20 -27 -40 -65 -38 -69 -83 -126 -118 -147 -10 -6 -18 -16
-16 -23 1 -6 -2 -9 -7 -6 -5 3 -14 -1 -21 -9 -7 -8 -18 -15 -24 -15 -7 0 -23
-10 -36 -22 -14 -13 -28 -22 -32 -20 -5 1 -8 -6 -8 -15 0 -12 -3 -14 -8 -6
-10 17 -58 -8 -54 -28 2 -10 0 -11 -7 -4 -8 8 -51 -2 -143 -32 -73 -24 -160
-48 -193 -53 -50 -8 -107 -22 -225 -54 -8 -3 -25 -5 -38 -5 -13 -1 -21 -4 -19
-8 3 -5 -6 -9 -19 -9 -39 -3 -135 -45 -127 -57 3 -6 1 -7 -6 -3 -6 4 -19 2
-28 -6 -9 -7 -19 -13 -22 -13 -3 0 -5 -4 -3 -8 1 -5 -2 -6 -7 -3 -5 3 -21 -1
-37 -8 l-27 -15 26 -7 c32 -7 101 21 91 38 -4 6 -3 8 3 5 16 -10 74 13 66 26
-3 5 -2 7 4 4 14 -9 83 12 83 24 0 6 6 9 13 6 6 -2 21 1 32 7 11 6 29 11 40
12 109 11 413 85 491 119 31 14 63 25 70 25 8 0 14 5 14 10 0 6 5 10 12 10 17
0 100 51 94 57 -3 4 -16 -2 -28 -13 -12 -10 -18 -14 -14 -7 3 7 20 21 36 33
20 15 31 17 36 9 4 -7 3 -9 -4 -5 -6 3 -13 2 -16 -3 -15 -24 15 -18 34 6 12
16 18 21 14 13 -5 -11 -2 -11 12 2 10 10 33 29 49 43 17 13 24 25 18 25 -7 0
-13 5 -13 11 0 5 5 7 10 4 16 -10 41 21 33 42 -6 15 -4 16 9 5 13 -10 20 -4
47 47 17 33 31 63 30 68 -1 4 3 20 9 35 6 14 11 75 11 134 0 92 -5 122 -30
201 -26 80 -39 110 -39 87z m-58 -606 c-7 -7 -12 -8 -12 -2 0 14 12 26 19 19
2 -3 -1 -11 -7 -17z"/>
<path d="M1617 1669 c7 -7 15 -10 18 -7 3 3 -2 9 -12 12 -14 6 -15 5 -6 -5z"/>
<path d="M1689 1639 c24 -10 46 -17 48 -15 7 6 -27 22 -62 29 -23 5 -20 2 14
-14z"/>
<path d="M1750 1619 c0 -5 4 -9 9 -9 5 0 17 -3 27 -7 11 -4 15 -3 11 4 -9 14
-47 24 -47 12z"/>
<path d="M1850 1592 c0 -5 51 -19 113 -32 125 -25 280 -64 346 -86 72 -24 58
-8 -18 21 -114 43 -441 115 -441 97z"/>
<path d="M2371 1456 c10 -9 69 -36 69 -32 0 6 -55 36 -66 36 -4 0 -5 -2 -3 -4z"/>
<path d="M1570 1395 c0 -2 7 -20 16 -38 15 -31 15 -36 0 -65 -22 -43 -20 -52
10 -52 19 0 25 -4 20 -15 -5 -13 12 -15 114 -15 73 0 120 -4 120 -10 0 -5 19
-11 43 -11 23 -1 32 -4 20 -6 -13 -2 -23 -9 -23 -14 0 -5 69 -9 164 -8 150 0
164 2 160 17 -5 16 -5 16 5 0 9 -14 33 -16 157 -17 118 -1 145 1 141 12 -3 9
5 14 27 15 l31 2 -24 -14 c-21 -12 17 -14 277 -14 l302 -1 0 25 c0 23 3 24 78
26 42 1 94 2 115 2 31 -1 37 2 30 15 -10 22 -9 82 2 105 7 16 5 18 -13 14 -24
-7 -27 3 -12 33 10 19 4 19 -264 19 l-275 0 -3 -27 -3 -28 -309 -3 c-324 -2
-366 2 -366 40 0 17 -19 18 -270 18 -148 0 -270 -2 -270 -5z m1301 -59 c-8
-10 -9 -16 -1 -21 5 -3 10 -26 10 -51 0 -32 -4 -44 -15 -44 -12 0 -15 13 -15
58 0 58 4 72 23 72 5 0 4 -6 -2 -14z m-844 -28 c-2 -7 -10 -12 -16 -10 -7 1
-11 -14 -11 -38 0 -29 -4 -40 -15 -40 -11 0 -15 11 -15 41 0 24 -4 38 -10 34
-5 -3 -10 1 -10 9 0 12 11 16 41 16 28 0 39 -4 36 -12z m38 -41 c0 -32 -4 -47
-12 -47 -9 0 -13 16 -13 51 0 36 4 49 13 47 7 -3 12 -23 12 -51z m70 23 l31
-30 0 27 c-1 14 5 28 12 30 8 3 12 -10 12 -46 0 -60 -12 -65 -51 -18 l-28 32
-1 -32 c0 -18 -4 -33 -10 -33 -5 0 -10 23 -10 50 0 28 3 50 7 50 4 0 21 -14
38 -30z m159 24 c25 -9 19 -27 -7 -21 -29 8 -50 -6 -45 -29 2 -12 13 -20 28
-21 14 -1 19 0 13 3 -22 10 -14 24 12 24 31 0 33 -23 4 -43 -35 -25 -89 -2
-89 39 0 36 46 63 84 48z m134 -10 c24 -17 29 -53 10 -72 -7 -7 -29 -12 -50
-12 -32 0 -40 4 -48 26 -22 56 36 95 88 58z m132 -16 l11 -33 14 33 c18 42 33
41 41 -5 10 -58 16 -60 33 -12 23 61 42 61 68 -1 16 -38 18 -50 8 -50 -8 0
-17 5 -20 10 -3 6 -15 10 -26 10 -10 0 -19 -4 -19 -10 0 -5 -13 -10 -29 -10
-25 0 -30 5 -33 28 l-4 27 -12 -27 c-6 -16 -16 -28 -21 -28 -5 0 -14 12 -19
28 l-10 27 -7 -27 c-12 -45 -28 -34 -21 14 11 69 27 78 46 26z m265 16 c12
-13 13 -19 3 -31 -9 -11 -9 -19 0 -34 10 -15 9 -19 -1 -19 -7 0 -18 5 -25 12
-9 9 -12 9 -12 0 0 -7 -7 -12 -15 -12 -11 0 -15 12 -15 50 0 46 2 50 24 50 14
0 32 -7 41 -16z m152 -34 c16 -38 18 -50 8 -50 -8 0 -17 5 -20 10 -3 6 -15 10
-26 10 -10 0 -19 -4 -19 -10 0 -5 -7 -10 -15 -10 -12 0 -12 5 0 41 28 77 43
79 72 9z m286 -47 c-13 -2 -33 -2 -45 0 -13 2 -3 4 22 4 25 0 35 -2 23 -4z
m-1296 -39 c-3 -3 -12 -4 -19 -1 -8 3 -5 6 6 6 11 1 17 -2 13 -5z m216 -1 c-7
-2 -19 -2 -25 0 -7 3 -2 5 12 5 14 0 19 -2 13 -5z m107 -4 c0 -4 -12 -5 -27
-3 -39 7 -41 13 -4 12 17 -1 31 -5 31 -9z m40 5 c0 -8 -19 -13 -24 -6 -3 5 1
9 9 9 8 0 15 -2 15 -3z m167 0 c-3 -3 -12 -4 -19 -1 -8 3 -5 6 6 6 11 1 17 -2
13 -5z m163 -4 c0 -5 -8 -10 -17 -10 -15 0 -16 2 -3 10 19 12 20 12 20 0z
m200 0 c0 -5 -5 -10 -11 -10 -5 0 -7 5 -4 10 3 6 8 10 11 10 2 0 4 -4 4 -10z
m127 4 c-9 -10 -97 -12 -97 -3 0 5 23 9 52 9 28 0 49 -3 45 -6z m76 -1 c-7 -2
-19 -2 -25 0 -7 3 -2 5 12 5 14 0 19 -2 13 -5z"/>
<path d="M2372 1291 c-23 -14 -10 -46 18 -46 16 0 26 6 28 19 3 16 -12 36 -28
36 -3 0 -11 -4 -18 -9z"/>
<path d="M2686 1275 c-3 -9 0 -15 9 -15 9 0 12 6 9 15 -4 8 -7 15 -9 15 -2 0
-5 -7 -9 -15z"/>
<path d="M2790 1290 c0 -5 5 -10 11 -10 5 0 7 5 4 10 -3 6 -8 10 -11 10 -2 0
-4 -4 -4 -10z"/>
<path d="M2930 1270 c0 -5 5 -10 10 -10 6 0 10 5 10 10 0 6 -4 10 -10 10 -5 0
-10 -4 -10 -10z"/>
<path d="M1773 1005 c0 -22 2 -30 4 -17 2 12 2 30 0 40 -3 9 -5 -1 -4 -23z"/>
<path d="M1875 1029 c-4 -6 -5 -12 -2 -15 2 -3 7 2 10 11 7 17 1 20 -8 4z"/>
<path d="M1941 1008 c-1 -30 3 -38 17 -38 11 0 13 3 5 8 -6 4 -13 21 -16 37
-4 27 -4 27 -6 -7z"/>
<path d="M2223 1005 c0 -22 2 -30 4 -17 2 12 2 30 0 40 -3 9 -5 -1 -4 -23z"/>
<path d="M2742 1010 c0 -19 2 -27 5 -17 2 9 2 25 0 35 -3 9 -5 1 -5 -18z"/>
<path d="M3272 1010 c0 -19 2 -27 5 -17 2 9 2 25 0 35 -3 9 -5 1 -5 -18z"/>
<path d="M3441 1008 c-1 -30 3 -38 17 -38 11 0 13 3 5 8 -6 4 -13 21 -16 37
-4 27 -4 27 -6 -7z"/>
<path d="M1651 1028 c2 -2 18 -14 34 -28 l30 -25 -24 28 c-14 15 -29 27 -34
27 -6 0 -8 -1 -6 -2z"/>
<path d="M2690 1000 c0 -16 2 -30 4 -30 2 0 6 14 8 30 3 17 1 30 -4 30 -4 0
-8 -13 -8 -30z"/>
<path d="M3220 1026 c0 -2 8 -10 18 -17 15 -13 16 -12 3 4 -13 16 -21 21 -21
13z"/>
<path d="M2422 1001 c-11 -6 -9 -9 6 -13 15 -4 19 -2 15 8 -6 16 -4 16 -21 5z"/>
<path d="M1850 989 c0 -5 5 -7 10 -4 6 3 10 8 10 11 0 2 -4 4 -10 4 -5 0 -10
-5 -10 -11z"/>
<path d="M2818 993 c6 -2 18 -2 25 0 6 3 1 5 -13 5 -14 0 -19 -2 -12 -5z"/>
<path d="M3348 993 c6 -2 18 -2 25 0 6 3 1 5 -13 5 -14 0 -19 -2 -12 -5z"/>
<path d="M1547 978 c2 -5 10 -8 18 -8 8 0 16 3 18 8 3 4 -5 7 -18 7 -13 0 -21
-3 -18 -7z"/>
<path d="M3125 980 c-16 -7 -17 -9 -3 -9 9 -1 20 4 23 9 7 11 7 11 -20 0z"/>
<path d="M2298 973 c7 -3 16 -2 19 1 4 3 -2 6 -13 5 -11 0 -14 -3 -6 -6z"/>
<path d="M2518 973 c7 -3 16 -2 19 1 4 3 -2 6 -13 5 -11 0 -14 -3 -6 -6z"/>
<path d="M2938 973 c7 -3 16 -2 19 1 4 3 -2 6 -13 5 -11 0 -14 -3 -6 -6z"/>
<path d="M1590 923 c-49 -18 -64 -68 -34 -111 30 -44 124 -20 124 31 0 13 -9
17 -35 17 -19 0 -35 -4 -35 -10 0 -5 9 -10 20 -10 24 0 27 -15 4 -24 -28 -11
-40 -7 -53 18 -10 18 -10 28 -1 46 10 18 17 21 46 15 38 -7 46 8 15 25 -21 11
-28 11 -51 3z"/>
<path d="M3040 910 c-16 -16 -18 -25 -10 -40 6 -11 20 -20 31 -20 14 0 19 -5
17 -17 -2 -11 -12 -18 -25 -18 -13 0 -23 -4 -23 -10 0 -5 17 -10 38 -10 34 0
37 2 40 32 2 25 -2 35 -22 47 -30 19 -33 30 -8 32 35 3 37 4 22 14 -23 15 -38
12 -60 -10z"/>
<path d="M1426 888 c-8 -18 -17 -46 -20 -63 l-6 -30 64 -1 64 0 -21 60 c-17
48 -27 62 -45 64 -17 3 -25 -4 -36 -30z m47 -25 c6 -28 4 -33 -13 -33 -17 0
-19 4 -14 28 13 52 18 53 27 5z"/>
<path d="M1710 856 c0 -52 3 -66 15 -66 10 0 15 10 15 28 l1 27 22 -27 c28
-34 53 -39 36 -7 -8 17 -8 27 2 46 19 36 1 57 -50 61 l-41 3 0 -65z m65 19 c0
-11 -8 -21 -17 -23 -14 -3 -18 3 -18 23 0 20 4 26 18 23 9 -2 17 -12 17 -23z"/>
<path d="M1854 863 c-9 -32 -18 -60 -19 -63 -2 -3 26 -5 61 -5 35 0 64 2 64 4
0 2 -10 30 -21 62 -18 49 -26 59 -45 59 -20 0 -26 -9 -40 -57z m56 -10 c0 -16
-6 -23 -19 -23 -17 0 -18 3 -8 35 11 38 27 30 27 -12z"/>
<path d="M1980 855 c0 -58 2 -65 20 -65 15 0 20 7 20 28 l1 27 15 -27 c15 -29
51 -40 40 -13 -3 8 -9 22 -12 30 -3 8 -2 15 4 15 16 0 23 30 12 51 -8 14 -21
19 -55 19 l-45 0 0 -65z m65 20 c0 -10 -6 -20 -12 -22 -8 -3 -13 5 -13 22 0
17 5 25 13 23 6 -3 12 -13 12 -23z"/>
<path d="M2110 855 c0 -58 2 -65 20 -65 18 0 20 7 20 65 0 58 -2 65 -20 65
-18 0 -20 -7 -20 -65z"/>
<path d="M2215 911 c-3 -6 -14 -35 -24 -64 l-19 -53 64 0 c36 1 64 5 63 11 0
6 -8 33 -17 60 -13 37 -23 51 -39 53 -11 2 -24 -2 -28 -7z m39 -53 c5 -24 3
-28 -14 -28 -21 0 -24 10 -14 48 8 27 19 19 28 -20z"/>
<path d="M2390 855 l0 -65 44 0 c35 0 48 5 60 22 37 53 4 108 -64 108 l-40 0
0 -65z m66 37 c32 -22 20 -82 -16 -82 -17 0 -20 7 -20 45 0 44 10 55 36 37z"/>
<path d="M2540 855 l0 -65 40 0 c22 0 40 5 40 10 0 6 -12 10 -26 10 -33 0 -30
33 4 38 30 5 28 22 -3 22 -16 0 -25 6 -25 15 0 9 9 15 25 15 14 0 25 5 25 10
0 6 -18 10 -40 10 l-40 0 0 -65z"/>
<path d="M2720 855 l0 -65 40 0 c22 0 40 5 40 10 0 6 -11 10 -25 10 -24 0 -25
3 -25 55 0 42 -3 55 -15 55 -12 0 -15 -14 -15 -65z"/>
<path d="M2831 861 c-11 -32 -21 -60 -21 -62 0 -2 28 -4 63 -4 l63 0 -20 63
c-17 50 -25 62 -42 62 -17 0 -26 -12 -43 -59z m57 2 c10 -31 10 -33 -14 -33
-27 0 -29 6 -14 46 12 31 13 30 28 -13z"/>
<path d="M3140 855 l0 -65 40 0 c22 0 40 5 40 10 0 6 -12 10 -26 10 -33 0 -30
33 4 38 31 5 28 22 -4 22 -31 0 -28 23 4 28 38 6 24 22 -18 22 l-40 0 0 -65z"/>
<path d="M3258 855 l4 -65 39 0 c44 0 53 17 12 22 -27 3 -28 5 -25 56 3 45 1
52 -15 52 -16 0 -18 -8 -15 -65z"/>
<path d="M3358 855 c15 -36 33 -65 40 -65 13 0 62 93 62 118 0 6 -7 12 -15 12
-9 0 -20 -17 -27 -45 -7 -25 -15 -45 -19 -45 -3 0 -12 20 -19 45 -9 32 -18 45
-31 45 -16 0 -15 -6 9 -65z"/>
<path d="M3515 910 c-3 -5 -14 -34 -24 -63 l-19 -53 64 0 64 1 -6 29 c-13 58
-34 96 -54 96 -10 0 -22 -4 -25 -10z m39 -52 c5 -24 3 -28 -15 -28 -15 0 -19
4 -15 16 3 9 6 25 6 37 0 27 15 11 24 -25z"/>
</g>
</svg>
